<svg width="314" height="48" viewBox="0 0 314 48" fill="none" xmlns="http://www.w3.org/2000/svg">
<path d="M13.288 31.96C13.288 34.616 12.808 36.808 11.848 38.536C10.92 40.264 9.672 41.608 8.104 42.568C6.568 43.56 4.728 44.408 2.584 45.112L0.472 39.544C1.88 39 2.936 38.376 3.64 37.672C4.344 36.968 4.808 36.152 5.032 35.224C5.288 34.296 5.416 33.112 5.416 31.672V3.736H13.288V31.96ZM30.2504 10.696C34.1544 10.696 37.2104 11.896 39.4184 14.296C41.6264 16.664 42.7304 19.992 42.7304 24.28C42.7304 27 42.2184 29.384 41.1944 31.432C40.2024 33.448 38.7624 35.016 36.8744 36.136C35.0184 37.256 32.8104 37.816 30.2504 37.816C26.3784 37.816 23.3224 36.632 21.0824 34.264C18.8744 31.864 17.7704 28.52 17.7704 24.232C17.7704 21.512 18.2664 19.144 19.2584 17.128C20.2824 15.08 21.7224 13.496 23.5784 12.376C25.4664 11.256 27.6904 10.696 30.2504 10.696ZM30.2504 16.264C28.7144 16.264 27.5624 16.92 26.7944 18.232C26.0264 19.512 25.6424 21.512 25.6424 24.232C25.6424 27.016 26.0104 29.048 26.7464 30.328C27.5144 31.608 28.6824 32.248 30.2504 32.248C31.7864 32.248 32.9384 31.608 33.7064 30.328C34.4744 29.016 34.8584 27 34.8584 24.28C34.8584 21.496 34.4744 19.464 33.7064 18.184C32.9704 16.904 31.8184 16.264 30.2504 16.264ZM62.1696 10.696C64.3776 10.696 66.1056 11.368 67.3536 12.712C68.6016 14.056 69.2256 15.944 69.2256 18.376V37H61.6416V19.672C61.6416 18.392 61.4336 17.512 61.0176 17.032C60.6016 16.52 60.0096 16.264 59.2416 16.264C57.7056 16.264 56.2336 17.352 54.8256 19.528V37H47.2416V1.384L54.8256 0.615999V14.248C55.8816 13.064 57.0016 12.184 58.1856 11.608C59.3696 11 60.6976 10.696 62.1696 10.696ZM89.8728 10.696C92.0808 10.696 93.8088 11.368 95.0568 12.712C96.3048 14.056 96.9288 15.944 96.9288 18.376V37H89.3448V19.672C89.3448 18.392 89.1368 17.512 88.7208 17.032C88.3368 16.52 87.7448 16.264 86.9448 16.264C85.4088 16.264 83.9368 17.368 82.5288 19.576V37H74.9448V11.512H81.5688L82.0968 14.536C83.1848 13.256 84.3528 12.296 85.6008 11.656C86.8808 11.016 88.3048 10.696 89.8728 10.696ZM117.576 10.696C119.784 10.696 121.512 11.368 122.76 12.712C124.008 14.056 124.632 15.944 124.632 18.376V37H117.048V19.672C117.048 18.392 116.84 17.512 116.424 17.032C116.04 16.52 115.448 16.264 114.648 16.264C113.112 16.264 111.64 17.368 110.232 19.576V37H102.648V11.512H109.272L109.8 14.536C110.888 13.256 112.056 12.296 113.304 11.656C114.584 11.016 116.008 10.696 117.576 10.696ZM144.134 37.048C143.11 40.344 141.43 42.872 139.094 44.632C136.79 46.424 133.686 47.432 129.782 47.656L128.966 42.328C131.398 42.008 133.19 41.464 134.342 40.696C135.526 39.928 136.47 38.696 137.174 37H134.582L126.806 11.512H134.87L139.43 32.152L144.422 11.512H152.246L144.134 37.048ZM199.472 37H191.744L191.168 23.992C191.008 20.888 190.928 18.12 190.928 15.688C190.928 13.832 190.976 12.072 191.072 10.408L185.936 33.496H178.496L173.024 10.408C173.216 13.192 173.312 15.816 173.312 18.28C173.312 20.136 173.264 22.072 173.168 24.088L172.592 37H164.912L167.408 3.736H177.344L182.336 26.296L186.992 3.736H196.976L199.472 37ZM224.295 29.608C224.295 30.568 224.423 31.272 224.679 31.72C224.967 32.168 225.415 32.504 226.023 32.728L224.439 37.672C222.871 37.544 221.591 37.208 220.599 36.664C219.607 36.088 218.839 35.192 218.295 33.976C216.631 36.536 214.071 37.816 210.615 37.816C208.087 37.816 206.071 37.08 204.567 35.608C203.063 34.136 202.311 32.216 202.311 29.848C202.311 27.064 203.335 24.936 205.383 23.464C207.431 21.992 210.391 21.256 214.263 21.256H216.855V20.152C216.855 18.648 216.535 17.624 215.895 17.08C215.255 16.504 214.135 16.216 212.535 16.216C211.703 16.216 210.695 16.344 209.511 16.6C208.327 16.824 207.111 17.144 205.863 17.56L204.135 12.568C205.735 11.96 207.367 11.496 209.031 11.176C210.727 10.856 212.295 10.696 213.734 10.696C217.383 10.696 220.055 11.448 221.751 12.952C223.447 14.456 224.295 16.712 224.295 19.72V29.608ZM212.823 32.392C214.551 32.392 215.895 31.576 216.855 29.944V25.432H214.983C213.255 25.432 211.959 25.736 211.095 26.344C210.263 26.952 209.847 27.896 209.847 29.176C209.847 30.2 210.103 31 210.615 31.576C211.159 32.12 211.895 32.392 212.823 32.392ZM244.159 10.792C245.087 10.792 245.935 10.904 246.703 11.128L245.503 18.472C244.543 18.248 243.775 18.136 243.199 18.136C241.695 18.136 240.543 18.664 239.743 19.72C238.975 20.744 238.367 22.296 237.919 24.376V37H230.335V11.512H236.959L237.583 16.456C238.159 14.696 239.023 13.32 240.175 12.328C241.359 11.304 242.687 10.792 244.159 10.792ZM256.369 37.816C254.161 37.816 252.433 37.192 251.185 35.944C249.969 34.664 249.361 32.856 249.361 30.52V1.384L256.945 0.567997V30.232C256.945 31.288 257.377 31.816 258.241 31.816C258.689 31.816 259.105 31.736 259.489 31.576L260.977 36.952C259.601 37.528 258.065 37.816 256.369 37.816ZM274.657 10.696C278.561 10.696 281.617 11.896 283.825 14.296C286.033 16.664 287.137 19.992 287.137 24.28C287.137 27 286.625 29.384 285.601 31.432C284.609 33.448 283.169 35.016 281.281 36.136C279.425 37.256 277.217 37.816 274.657 37.816C270.785 37.816 267.729 36.632 265.489 34.264C263.281 31.864 262.177 28.52 262.177 24.232C262.177 21.512 262.673 19.144 263.665 17.128C264.689 15.08 266.129 13.496 267.985 12.376C269.873 11.256 272.097 10.696 274.657 10.696ZM274.657 16.264C273.121 16.264 271.969 16.92 271.201 18.232C270.433 19.512 270.049 21.512 270.049 24.232C270.049 27.016 270.417 29.048 271.153 30.328C271.921 31.608 273.089 32.248 274.657 32.248C276.193 32.248 277.345 31.608 278.113 30.328C278.881 29.016 279.265 27 279.265 24.28C279.265 21.496 278.881 19.464 278.113 18.184C277.377 16.904 276.225 16.264 274.657 16.264ZM306.576 10.696C308.784 10.696 310.512 11.368 311.76 12.712C313.008 14.056 313.632 15.944 313.632 18.376V37H306.048V19.672C306.048 18.392 305.84 17.512 305.424 17.032C305.04 16.52 304.448 16.264 303.648 16.264C302.112 16.264 300.64 17.368 299.232 19.576V37H291.648V11.512H298.272L298.8 14.536C299.888 13.256 301.056 12.296 302.304 11.656C303.584 11.016 305.008 10.696 306.576 10.696Z" fill="#333333"/>
</svg>
